<svg width="38px" height="37px" viewBox="0 0 38 37" version="1.1" xmlns="http://www.w3.org/2000/svg" xmlns:xlink="http://www.w3.org/1999/xlink">
    <g fill="#bbbbbb" stroke="none" stroke-width="1" fill-rule="evenodd">
        <path d="M19,0.21484375 C16.5156126,0.21484375 14.1777453,0.689448379 11.9863281,1.63867188 C9.79491092,2.58789537 7.88477377,3.87694498 6.25585938,5.50585938 C4.62694498,7.13477377 3.33789537,9.04491092 2.38867188,11.2363281 C1.43944838,13.4277453 0.96484375,15.7656126 0.96484375,18.25 C0.96484375,20.7343874 1.43944838,23.0722547 2.38867188,25.2636719 C3.33789537,27.4550891 4.62694498,29.3652262 6.25585938,30.9941406 C7.88477377,32.623055 9.79491092,33.9121046 11.9863281,34.8613281 C14.1777453,35.8105516 16.5156126,36.2851562 19,36.2851562 C21.4843874,36.2851562 23.8222547,35.8105516 26.0136719,34.8613281 C28.2050891,33.9121046 30.1152262,32.623055 31.7441406,30.9941406 C33.373055,29.3652262 34.6621046,27.4550891 35.6113281,25.2636719 C36.5605516,23.0722547 37.0351562,20.7343874 37.0351562,18.25 C37.0351562,15.7656126 36.5605516,13.4277453 35.6113281,11.2363281 C34.6621046,9.04491092 33.373055,7.13477377 31.7441406,5.50585938 C30.1152262,3.87694498 28.2050891,2.58789537 26.0136719,1.63867188 C23.8222547,0.689448379 21.4843874,0.21484375 19,0.21484375 L19,0.21484375 Z M19,35.0898438 C16.6796759,35.0898438 14.5000102,34.650395 12.4609375,33.7714844 C10.4218648,32.8925737 8.64063262,31.6855546 7.1171875,30.1503906 C5.59374238,28.6152267 4.3867232,26.8281352 3.49609375,24.7890625 C2.6054643,22.7499898 2.16015625,20.5703241 2.16015625,18.25 C2.16015625,15.9296759 2.6054643,13.7500102 3.49609375,11.7109375 C4.3867232,9.6718648 5.59374238,7.8847733 7.1171875,6.34960938 C8.64063262,4.81444545 10.4218648,3.60742627 12.4609375,2.72851562 C14.5000102,1.84960498 16.6796759,1.41015625 19,1.41015625 C21.3203241,1.41015625 23.4999898,1.84960498 25.5390625,2.72851562 C27.5781352,3.60742627 29.3593674,4.81444545 30.8828125,6.34960938 C32.4062576,7.8847733 33.6132768,9.6718648 34.5039062,11.7109375 C35.3945357,13.7500102 35.8398438,15.9296759 35.8398438,18.25 C35.8398438,20.5703241 35.3945357,22.7499898 34.5039062,24.7890625 C33.6132768,26.8281352 32.4062576,28.6152267 30.8828125,30.1503906 C29.3593674,31.6855546 27.5781352,32.8925737 25.5390625,33.7714844 C23.4999898,34.650395 21.3203241,35.0898438 19,35.0898438 L19,35.0898438 Z M19.1757812,22.5390625 C17.6054609,22.5390625 16.0996166,22.8613249 14.6582031,23.5058594 C13.2167897,24.1503938 11.9570366,25.0468693 10.8789063,26.1953125 C10.7617182,26.3125006 10.7089843,26.4531242 10.7207031,26.6171875 C10.7324219,26.7812508 10.7968744,26.9218744 10.9140625,27.0390625 C11.0312506,27.1562506 11.1777335,27.2089844 11.3535156,27.1972656 C11.5292978,27.1855468 11.664062,27.1210943 11.7578125,27.0039062 C12.7187548,25.9726511 13.8437436,25.1757841 15.1328125,24.6132812 C16.4218814,24.0507784 17.7695242,23.7695312 19.1757812,23.7695312 C20.6054759,23.7695312 21.9706966,24.0566378 23.2714844,24.6308594 C24.5722721,25.205081 25.7031202,26.019526 26.6640625,27.0742188 C26.7343754,27.1445316 26.8046871,27.1972654 26.875,27.2324219 C26.9453129,27.2675783 27.0273433,27.2851562 27.1210938,27.2851562 C27.1914066,27.2851562 27.2617184,27.2734376 27.3320312,27.25 C27.4023441,27.2265624 27.4609373,27.1914065 27.5078125,27.1445312 C27.6484382,27.0273432 27.71875,26.8867196 27.71875,26.7226562 C27.71875,26.5585929 27.6718755,26.4179693 27.578125,26.3007812 C26.4999946,25.1054628 25.2285229,24.1796908 23.7636719,23.5234375 C22.2988208,22.8671842 20.7695392,22.5390625 19.1757812,22.5390625 L19.1757812,22.5390625 Z M12.8125,18.8125 C13.421878,18.8125 13.9492165,18.589846 14.3945312,18.1445312 C14.839846,17.6992165 15.0625,17.171878 15.0625,16.5625 C15.0625,15.953122 14.839846,15.4257835 14.3945312,14.9804688 C13.9492165,14.535154 13.421878,14.3125 12.8125,14.3125 C12.203122,14.3125 11.6757835,14.535154 11.2304688,14.9804688 C10.785154,15.4257835 10.5625,15.953122 10.5625,16.5625 C10.5625,17.171878 10.785154,17.6992165 11.2304688,18.1445312 C11.6757835,18.589846 12.203122,18.8125 12.8125,18.8125 L12.8125,18.8125 Z M12.8125,15.4375 C13.117189,15.4375 13.3808583,15.548827 13.6035156,15.7714844 C13.826173,15.9941417 13.9375,16.257811 13.9375,16.5625 C13.9375,16.867189 13.826173,17.1308583 13.6035156,17.3535156 C13.3808583,17.576173 13.117189,17.6875 12.8125,17.6875 C12.507811,17.6875 12.2441417,17.576173 12.0214844,17.3535156 C11.798827,17.1308583 11.6875,16.867189 11.6875,16.5625 C11.6875,16.257811 11.798827,15.9941417 12.0214844,15.7714844 C12.2441417,15.548827 12.507811,15.4375 12.8125,15.4375 L12.8125,15.4375 Z M25.1875,18.8125 C25.796878,18.8125 26.3242165,18.589846 26.7695312,18.1445312 C27.214846,17.6992165 27.4375,17.171878 27.4375,16.5625 C27.4375,15.953122 27.214846,15.4257835 26.7695312,14.9804688 C26.3242165,14.535154 25.796878,14.3125 25.1875,14.3125 C24.578122,14.3125 24.0507835,14.535154 23.6054688,14.9804688 C23.160154,15.4257835 22.9375,15.953122 22.9375,16.5625 C22.9375,17.171878 23.160154,17.6992165 23.6054688,18.1445312 C24.0507835,18.589846 24.578122,18.8125 25.1875,18.8125 L25.1875,18.8125 Z M25.1875,15.4375 C25.492189,15.4375 25.7558583,15.548827 25.9785156,15.7714844 C26.201173,15.9941417 26.3125,16.257811 26.3125,16.5625 C26.3125,16.867189 26.201173,17.1308583 25.9785156,17.3535156 C25.7558583,17.576173 25.492189,17.6875 25.1875,17.6875 C24.882811,17.6875 24.6191417,17.576173 24.3964844,17.3535156 C24.173827,17.1308583 24.0625,16.867189 24.0625,16.5625 C24.0625,16.257811 24.173827,15.9941417 24.3964844,15.7714844 C24.6191417,15.548827 24.882811,15.4375 25.1875,15.4375 L25.1875,15.4375 Z"></path>
    </g>
</svg>
