<?xml version="1.0" encoding="UTF-8"?><svg width="702px" height="112px" viewBox="0 0 702 112" version="1.1" xmlns="http://www.w3.org/2000/svg" xmlns:xlink="http://www.w3.org/1999/xlink"><path d="M73.008183,19.7335092 C65.9164945,11.819596 55.8957807,7.86269876 42.9457409,7.86269876 C32.2568192,7.86269876 24.4714954,9.89253566 19.5895359,13.9522704 C14.7075765,18.0120051 12.2666334,23.4848564 12.2666334,30.3709887 C12.2666334,33.8654439 12.8832927,36.7688815 14.1166298,39.0813886 C15.3499669,41.3938957 17.2770273,43.3723443 19.8978687,45.0167938 C22.5187101,46.6612433 25.8332539,48.0487268 29.8415995,49.1792858 C33.8499452,50.3098448 38.6804431,51.4917752 44.3332383,52.7251123 C50.1915896,53.9584494 55.5102762,55.3202387 60.2894575,56.8105211 C65.0686389,58.3008035 69.1283127,60.1764755 72.4686007,62.4375936 C75.8088888,64.6987116 78.3783025,67.4736785 80.1769192,70.7625775 C81.9755358,74.0514765 82.8748307,78.1111503 82.8748307,82.9417207 C82.8748307,87.7722911 81.9241475,91.9861298 80.0227528,95.583363 C78.1213581,99.1805963 75.4491677,102.18681 72.0061016,104.602096 C68.5630355,107.017381 64.4519734,108.841665 59.672792,110.075002 C54.8936107,111.308339 49.5749241,111.924998 43.7165728,111.924998 C26.6554092,111.924998 12.2153037,106.477841 0.395822935,95.583363 L4.55831491,89.2625419 C9.18332913,94.0931123 14.8360395,97.9215388 21.5166156,100.747936 C28.1971917,103.574334 35.6998799,104.987512 44.0249055,104.987512 C53.5832682,104.987512 61.0602624,103.24031 66.4561123,99.745855 C71.8519622,96.2513998 74.5498467,90.9584074 74.5498467,83.866719 C74.5498467,80.2694857 73.8304108,77.2118833 72.3915175,74.69382 C70.9526242,72.1757567 68.8200108,69.9917549 65.9936132,68.1417493 C63.1672156,66.2917436 59.5957304,64.698707 55.2790505,63.3625918 C50.9623706,62.0264766 45.9263195,60.7417697 40.1707463,59.5084326 C34.3123949,58.2750954 29.1478732,56.9646944 24.6770261,55.5771901 C20.2061791,54.1896859 16.4548349,52.4424845 13.4228812,50.3355336 C10.3909274,48.2285827 8.10414912,45.684863 6.56247772,42.7042983 C5.02080631,39.7237336 4.24998217,35.9723894 4.24998217,31.4501533 C4.24998217,26.5168048 5.20066528,22.1488014 7.10206001,18.3460119 C9.00345474,14.5432224 11.649951,11.3314552 15.041628,8.71061379 C18.4333051,6.0897724 22.4929789,4.11132378 27.2207712,2.77520856 C31.9485635,1.43909335 37.1901677,0.771045758 42.9457409,0.771045758 C50.0374294,0.771045758 56.3581873,1.82450541 61.9082044,3.93145633 C67.4582214,6.03840725 72.4942725,9.2501745 77.0165086,13.5668544 L73.008183,19.7335092 Z M112.608126,111 L112.608126,1.54187761 L157.624706,1.54187761 C162.24972,1.54187761 166.514947,2.51825485 170.420515,4.47103863 C174.326082,6.42382241 177.692014,9.01893034 180.518412,12.2564403 C183.344809,15.4939502 185.554505,19.1425178 187.147566,23.2022525 C188.740626,27.2619872 189.537144,31.3473552 189.537144,35.4584789 C189.537144,39.8779369 188.792014,44.1431638 187.301732,48.2542876 C185.81145,52.3654113 183.70453,56.0139789 180.980911,59.2000998 C178.257291,62.3862207 174.994136,64.9299404 171.191346,66.8313351 C167.388557,68.7327298 163.174718,69.683413 158.549704,69.683413 L120.470611,69.683413 L120.470611,111 L112.608126,111 Z M120.470611,62.4375936 L158.241371,62.4375936 C161.838605,62.4375936 165.076066,61.6924636 167.953853,60.2021812 C170.831639,58.7118989 173.272582,56.7077561 175.276755,54.1896928 C177.280928,51.6716295 178.822576,48.7938861 179.901746,45.5563761 C180.980916,42.3188662 181.520493,38.9529341 181.520493,35.4584789 C181.520493,31.8612456 180.87814,28.4439253 179.593414,25.2064153 C178.308687,21.9689054 176.561486,19.1168561 174.351757,16.6501818 C172.142028,14.1835076 169.572614,12.2307531 166.643438,10.7918598 C163.714263,9.35296647 160.605272,8.63353061 157.316373,8.63353061 L120.470611,8.63353061 L120.470611,62.4375936 Z M218.345441,111 L218.345441,1.54187761 L226.207926,1.54187761 L226.207926,111 L218.345441,111 Z M272.745356,16.3418491 L272.745356,111 L264.882871,111 L264.882871,1.54187761 L270.895359,1.54187761 L347.670212,97.8958586 L347.670212,1.54187761 L355.532696,1.54187761 L355.532696,111 L348.286877,111 L272.745356,16.3418491 Z M392.820144,111 L392.820144,1.69604398 L406.695117,1.69604398 L406.695117,62.1292608 L463.120008,1.54187761 L478.074146,1.54187761 L434.136731,49.7959513 L480.540808,111 L465.432504,111 L425.65758,57.8126025 L406.695117,77.5458978 L406.695117,111 L392.820144,111 Z M541.569876,111.770832 C533.861519,111.770832 526.84702,110.203489 520.526167,107.068758 C514.205314,103.934026 508.783851,99.7715754 504.261615,94.5812816 C499.739379,89.3909879 496.244976,83.455642 493.778302,76.775066 C491.311628,70.0944899 490.078309,63.2598492 490.078309,56.2709388 C490.078309,48.9736942 491.38871,41.9848886 494.009551,35.3043125 C496.630393,28.6237365 500.253266,22.7140847 504.87828,17.57518 C509.503295,12.4362754 514.976146,8.35090742 521.296999,5.31895366 C527.617852,2.2869999 534.478186,0.771045758 541.878209,0.771045758 C549.586566,0.771045758 556.575372,2.38977645 562.844835,5.6272864 C569.114299,8.86479635 574.510068,13.1043291 579.032304,18.3460119 C583.55454,23.5876947 587.048943,29.5230405 589.515617,36.1522276 C591.982292,42.7814146 593.21561,49.5389729 593.21561,56.4251052 C593.21561,63.7223498 591.905209,70.7111553 589.284368,77.3917314 C586.663526,84.0723075 583.066347,89.9562651 578.492722,95.0437807 C573.919097,100.131296 568.471939,104.19097 562.151087,107.222924 C555.830234,110.254878 548.969899,111.770832 541.569876,111.770832 L541.569876,111.770832 Z M504.107449,56.2709388 C504.107449,61.8209559 505.006743,67.1910307 506.80536,72.3813244 C508.603977,77.5716181 511.147696,82.1708688 514.436595,86.1792145 C517.725494,90.1875601 521.682392,93.3736333 526.307406,95.7375294 C530.93242,98.1014256 536.071248,99.2833559 541.724043,99.2833559 C547.582394,99.2833559 552.823998,98.0243432 557.449012,95.5062799 C562.074027,92.9882166 566.00523,89.6993669 569.24274,85.6396322 C572.48025,81.5798975 574.946887,76.9806468 576.642725,71.8417421 C578.338564,66.7028374 579.186471,61.5126216 579.186471,56.2709388 C579.186471,50.7209217 578.287176,45.3508469 576.488559,40.1605532 C574.689942,34.9702595 572.120529,30.3967029 568.780241,26.4397463 C565.439953,22.4827897 561.483055,19.3224107 556.90943,16.9585146 C552.335805,14.5946184 547.27406,13.4126881 541.724043,13.4126881 C535.865691,13.4126881 530.624087,14.6460067 525.999073,17.1126809 C521.374059,19.5793552 517.442856,22.8168166 514.205346,26.8251622 C510.967836,30.8335079 508.475504,35.4070644 506.728277,40.5459691 C504.981049,45.6848738 504.107449,50.9264779 504.107449,56.2709388 L504.107449,56.2709388 Z M622.486406,111 L622.486406,1.54187761 L668.119652,1.54187761 C672.950222,1.54187761 677.395308,2.54394899 681.455043,4.54812181 C685.514777,6.55229464 689.00918,9.22448499 691.938356,12.564773 C694.867532,15.9050611 697.15431,19.6564052 698.798759,23.818918 C700.443209,27.9814308 701.265421,32.2209636 701.265421,36.5376435 C701.265421,41.0598796 700.494597,45.4278831 698.952926,49.6417849 C697.411254,53.8556867 695.227253,57.6070309 692.400855,60.8959299 C689.574457,64.1848289 686.182831,66.805631 682.225875,68.7584147 C678.268918,70.7111985 673.87522,71.6875758 669.04465,71.6875758 L636.36138,71.6875758 L636.36138,111 L622.486406,111 Z M636.36138,59.3542662 L668.273818,59.3542662 C671.151605,59.3542662 673.746713,58.763301 676.05922,57.5813529 C678.371727,56.3994049 680.350176,54.75498 681.994625,52.6480291 C683.639075,50.5410782 684.923781,48.1001351 685.848784,45.3251266 C686.773787,42.550118 687.236282,39.6209863 687.236282,36.5376435 C687.236282,33.3515226 686.696705,30.3710026 685.617535,27.5959941 C684.538365,24.8209855 683.099493,22.4057366 681.300876,20.3501747 C679.50226,18.2946128 677.39534,16.7015763 674.980055,15.5710172 C672.56477,14.4404582 670.02105,13.8751872 667.34882,13.8751872 L636.36138,13.8751872 L636.36138,59.3542662 Z" fill="#ffffff"></path></svg>
